<svg width="15" height="15" viewBox="0 0 15 15" fill="none" xmlns="http://www.w3.org/2000/svg">
<g clip-path="url(#clip0_1791:32164)">
<path d="M14.1517 0.817244C13.6197 0.292696 12.9023 -0.000948805 12.1552 2.30327e-06H2.84483C2.09019 -0.000478382 1.36631 0.299089 0.8327 0.832702C0.299088 1.36632 -0.000480108 2.09019 5.77587e-07 2.84483V9.56897C-0.000480108 10.3236 0.299088 11.0475 0.8327 11.5811C1.36631 12.1147 2.09019 12.4143 2.84483 12.4138H10.1224C10.1963 12.4134 10.2668 12.4445 10.3164 12.4991L12.4836 14.9172C12.5624 15.0006 12.6867 15.0222 12.7889 14.9702C12.8911 14.9181 12.9469 14.805 12.9259 14.6922L12.5922 12.6207C12.5699 12.4896 12.6521 12.3635 12.781 12.331C13.2922 12.2079 13.7604 11.9488 14.1362 11.581C14.6862 11.056 14.9981 10.3293 15 9.56897V2.84483C15.001 2.08248 14.6953 1.35178 14.1517 0.817244Z" fill="#F29C1F"/>
<path d="M14.9997 2.84497V9.56911C14.9979 10.3295 14.6859 11.0561 14.1359 11.5812L8.5575 6.20704L14.1515 0.817383C14.695 1.35192 15.0007 2.08262 14.9997 2.84497Z" fill="#F0C419"/>
<path d="M14.1516 0.817244L8.55763 6.2069L8.39728 6.36207C7.89674 6.84568 7.103 6.84568 6.60246 6.36207L6.44211 6.2069L1.59556 1.53621L0.848145 0.817244C1.38018 0.292696 2.09756 -0.000948805 2.8447 2.30327e-06H12.155C12.9022 -0.000948805 13.6196 0.292696 14.1516 0.817244Z" fill="#F3D55B"/>
<path d="M6.442 6.20704L0.848037 11.5967C0.304038 11.0625 -0.00174584 10.3316 -0.000238595 9.56911V2.84497C-0.00121975 2.08262 0.304483 1.35192 0.848037 0.817383L1.59545 1.53635L6.442 6.20704Z" fill="#F0C419"/>
<path d="M7.24088 1.29263H3.62019C3.47736 1.29263 3.36157 1.17684 3.36157 1.03401C3.36157 0.891179 3.47736 0.775391 3.62019 0.775391H7.24088C7.38371 0.775391 7.4995 0.891179 7.4995 1.03401C7.4995 1.17684 7.38371 1.29263 7.24088 1.29263Z" fill="white"/>
<path d="M2.58589 1.29263C2.72872 1.29263 2.84451 1.17684 2.84451 1.03401C2.84451 0.891179 2.72872 0.775391 2.58589 0.775391C2.44306 0.775391 2.32727 0.891179 2.32727 1.03401C2.32727 1.17684 2.44306 1.29263 2.58589 1.29263Z" fill="white"/>
</g>
<defs>
<clipPath id="clip0_1791:32164">
<rect width="15" height="15" fill="white"/>
</clipPath>
</defs>
</svg>
