<svg width="15" height="15" viewBox="0 0 15 15" fill="none" xmlns="http://www.w3.org/2000/svg">
<g clip-path="url(#clip0_1791:32033)">
<path d="M8.22581 10.4028H11.8548V14.7576H7.5V8.95117L8.22581 10.4028Z" fill="#D3A06C"/>
<path d="M7.49998 14.7576H3.14514V10.4028H6.77417L7.49998 8.95117V14.7576Z" fill="#D3A06C"/>
<path d="M11.8548 8.95117L12.5806 10.4028H8.22581L7.5 8.95117H11.8548Z" fill="#DFB28B"/>
<path d="M7.49996 8.95117L6.77415 10.4028H2.41931L3.14512 8.95117H7.49996Z" fill="#DFB28B"/>
<path d="M11.3709 4.59668L11.8548 5.56442C11.3733 5.88621 10.9452 6.27818 10.5846 6.73051L10.1613 7.25797L10.2532 6.52248C10.3016 6.1402 10.4274 5.77245 10.6161 5.44582C10.8048 5.1193 11.0613 4.82893 11.3709 4.59668Z" fill="#FCD770"/>
<path d="M4.74678 6.52248L4.83869 7.25797L4.4153 6.73051C4.05476 6.27818 3.62665 5.88621 3.14514 5.56442L3.62901 4.59668C3.93864 4.82893 4.1951 5.1193 4.38388 5.44582C4.57254 5.77245 4.69835 6.1402 4.74678 6.52248Z" fill="#FCD770"/>
<path d="M13.7901 3.94076L13.5482 4.35446L13.5119 4.83833L13.0643 4.72457L12.6167 4.83833L12.5804 4.35446L12.3385 3.94076L12.7643 3.75683L13.0643 3.38672L13.3644 3.75683L13.7901 3.94076Z" fill="#FF826E"/>
<path d="M8.95156 1.83367L8.46769 2.66107L8.39752 3.62881L7.49995 3.40141L6.60238 3.62881L6.53221 2.66107L6.04834 1.83367L6.90232 1.46592L7.49995 0.725586L8.09758 1.46592L8.95156 1.83367Z" fill="#FF826E"/>
<path d="M2.66121 3.94076L2.41927 4.35446L2.38301 4.83833L1.9354 4.72457L1.4878 4.83833L1.45153 4.35446L1.20959 3.94076L1.63534 3.75683L1.9354 3.38672L2.23546 3.75683L2.66121 3.94076Z" fill="#FF826E"/>
<path d="M12.0044 8.70996H2.99557L2.02783 10.6454H2.90319V15.0003H12.0967V10.6454H12.9721L12.0044 8.70996ZM11.7053 9.19383L12.1891 10.1616H8.37533L7.89146 9.19383H11.7053ZM3.29469 9.19383H7.10848L6.62461 10.1616H2.81081L3.29469 9.19383ZM11.6129 14.5164H7.7419V12.8229H7.25803V14.5164H3.38707V10.6454H6.92372L7.25803 9.9767V12.0971H7.7419V9.9767L8.07622 10.6454H11.6129V14.5164Z" fill="black"/>
<path d="M3.87109 12.5801H5.32271V13.0639H3.87109V12.5801Z" fill="black"/>
<path d="M3.87109 13.5488H5.32271V14.0327H3.87109V13.5488Z" fill="black"/>
<path d="M5.8064 13.5488H6.29027V14.0327H5.8064V13.5488Z" fill="black"/>
<path d="M6.38269 3.93453L7.49998 3.64971L8.61728 3.93429L8.70482 2.73454L9.29832 1.72073L8.24859 1.26639L7.49998 0.34082L6.75114 1.26639L5.70142 1.72073L6.29491 2.73454L6.38269 3.93453ZM7.05262 1.66296L7.49998 1.1101L7.94735 1.6632L8.60488 1.94801L8.23063 2.58735L8.17688 3.32308L7.49998 3.1506L6.82308 3.32284L6.76933 2.58711L6.39509 1.94766L7.05262 1.66296Z" fill="black"/>
<path d="M2.6564 4.42817L3.00797 3.82794L2.38517 3.55812L1.93544 3.00195L1.48571 3.55788L0.862915 3.8277L1.21448 4.42793L1.26646 5.14381L1.93544 4.9737L2.60466 5.14405L2.6564 4.42817ZM2.18222 4.2805L2.16379 4.53236L1.93544 4.47436L1.70733 4.53236L1.68866 4.2805L1.55635 4.05428L1.78695 3.95446L1.93544 3.77123L2.0837 3.95469L2.31429 4.05463L2.18222 4.2805Z" fill="black"/>
<path d="M13.7854 4.42817L14.137 3.82794L13.5142 3.55812L13.0645 3.00195L12.6147 3.55788L11.9919 3.8277L12.3435 4.42793L12.3955 5.14381L13.0645 4.9737L13.7337 5.14405L13.7854 4.42817ZM13.3112 4.2805L13.2928 4.53236L13.0645 4.47436L12.8364 4.53236L12.8179 4.2805L12.6856 4.05428L12.9162 3.95446L13.0645 3.77123L13.2127 3.95469L13.4433 4.05463L13.3112 4.2805Z" fill="black"/>
<path d="M3.0108 5.76604C3.47151 6.07331 3.88084 6.44826 4.22662 6.88086L5.18491 8.07825L4.98668 6.49303C4.8832 5.66539 4.44115 4.90356 3.77393 4.40327L3.54216 4.22949L2.83301 5.64744L3.0108 5.76604ZM3.70813 4.97975C4.11723 5.36687 4.39472 5.88217 4.48982 6.43963C4.18421 6.08075 3.83749 5.76096 3.45533 5.48536L3.70813 4.97975Z" fill="black"/>
<path d="M10.0133 6.49327L9.81506 8.07849L10.7734 6.88086C11.1194 6.44826 11.5285 6.07331 11.9892 5.76604L12.1667 5.64744L11.4576 4.22949L11.2258 4.40374C10.5588 4.90403 10.1165 5.66563 10.0133 6.49327ZM11.5446 5.4856C11.1625 5.7612 10.8155 6.08075 10.5102 6.43987C10.6055 5.8824 10.8827 5.36711 11.2918 4.97999L11.5446 5.4856Z" fill="black"/>
<path d="M8.46777 8.22553H8.95164V7.21184C8.95164 6.04977 9.36121 4.91853 10.1054 4.02556L9.73356 3.71582C8.91727 4.69549 8.46777 5.93707 8.46777 7.21184V8.22553Z" fill="black"/>
<path d="M10.1613 2.90332H10.6451V3.38719H10.1613V2.90332Z" fill="black"/>
<path d="M10.8871 1.93555H11.371V2.41942H10.8871V1.93555Z" fill="black"/>
<path d="M6.04834 8.22553H6.53221V7.21184C6.53221 5.93683 6.08272 4.69549 5.26666 3.71582L4.89478 4.02556C5.63877 4.91853 6.04834 6.04977 6.04834 7.21184V8.22553Z" fill="black"/>
<path d="M4.35486 2.90332H4.83873V3.38719H4.35486V2.90332Z" fill="black"/>
<path d="M3.62891 1.93555H4.11278V2.41942H3.62891V1.93555Z" fill="black"/>
<path d="M7.25818 4.11328H7.74205V4.59715H7.25818V4.11328Z" fill="black"/>
<path d="M7.25818 5.08008H7.74205V8.22524H7.25818V5.08008Z" fill="black"/>
<path d="M14.0322 6.53223H14.5161V7.0161H14.0322V6.53223Z" fill="black"/>
<path d="M14.0322 7.5H14.5161V7.98387H14.0322V7.5Z" fill="black"/>
<path d="M14.5161 7.01562H15V7.4995H14.5161V7.01562Z" fill="black"/>
<path d="M13.5483 7.01562H14.0322V7.4995H13.5483V7.01562Z" fill="black"/>
<path d="M13.3064 0H13.7903V0.483871H13.3064V0Z" fill="black"/>
<path d="M13.3064 0.967773H13.7903V1.45164H13.3064V0.967773Z" fill="black"/>
<path d="M13.7904 0.484375H14.2743V0.968246H13.7904V0.484375Z" fill="black"/>
<path d="M12.8225 0.484375H13.3064V0.968246H12.8225V0.484375Z" fill="black"/>
<path d="M0.483887 7.5H0.967758V7.98387H0.483887V7.5Z" fill="black"/>
<path d="M0.483887 8.46777H0.967758V8.95164H0.483887V8.46777Z" fill="black"/>
<path d="M0.967773 7.98438H1.45164V8.46825H0.967773V7.98438Z" fill="black"/>
<path d="M0 7.98438H0.483871V8.46825H0V7.98438Z" fill="black"/>
<path d="M0.483887 0H0.967758V0.483871H0.483887V0Z" fill="black"/>
<path d="M0.483887 0.967773H0.967758V1.45164H0.483887V0.967773Z" fill="black"/>
<path d="M0.967773 0.484375H1.45164V0.968246H0.967773V0.484375Z" fill="black"/>
<path d="M0 0.484375H0.483871V0.968246H0V0.484375Z" fill="black"/>
</g>
<defs>
<clipPath id="clip0_1791:32033">
<rect width="15" height="15" fill="white"/>
</clipPath>
</defs>
</svg>
